<?xml version="1.0" encoding="UTF-8"?><svg xmlns="http://www.w3.org/2000/svg" viewBox="0 0 293 70" version="1.1"><g transform="matrix(1.25,0,0,-1.25,0,70)"><g transform="scale(1.04 -.958)"><g fill="#fff"><path d="m68.3-46.3c-2.28-0.999-5.38-1.47-7.95-1.47-7.23 0-11.5 3.28-11.5 8.52 0 4.9 3.19 7.95 9.75 10 5.42 1.71 7.23 3.76 7.23 6.8 0 3.33-2.57 5.28-7.37 5.28-3.24 0-6.47-0.904-9.04-2.76l-0.381 4.38c2.62 1.43 5.66 2.19 9.09 2.19 7.61 0 12-3.43 12-9.33 0-5.09-3-7.99-10.4-10.5-4.62-1.62-6.61-3.43-6.61-6.14 0-2.85 2.24-4.71 7.04-4.71 2.52 0 5.42 0.523 7.76 1.86l0.333-4.19z"/><path d="m72-35.1h4.42v13.4c0 5.8 2.85 8.42 8.14 8.42 0.904 0 2.14-0.0952 3.24-0.285l-0.476-3.52c-0.809 0.19-1.67 0.285-2.38 0.285-3.19 0-4.52-1.05-4.52-6.47v-11.8h7.47v-3.43h-7.47v-7.37h-4v7.37h-4.42v3.43z"/><path d="m98.6-13.3c3.09 0 5.76-0.856 7.47-2.47v1.9h4v-16.1c0-6.76-3.66-9.09-10.2-9.09-3.09 0-6.28 0.761-8.61 1.9l0.428 3.57c2.28-1.24 5.42-1.95 8.09-1.95 4.42 0 6.33 1.19 6.33 4.57v1.71h-6.19c-6.9 0-10.8 3.19-10.8 8.18 0 5.14 4.09 7.8 9.52 7.8zm0.381-3.52c-3.43 0-5.8-1.38-5.8-4.38 0-2.85 2.14-4.66 6.9-4.66h5.99v5.99c-1.38 2.05-4.04 3.05-7.09 3.05z"/><path d="m131-38.8c-0.904-0.238-2.05-0.333-3-0.333-3.24 0-5.71 1.28-7.28 3.33v-2.76h-4v24.6h4v-17c1.14-2.85 3.47-4.47 6.85-4.47 0.999 0 2.19 0.19 3 0.523l0.428-3.9z"/></g><g fill="#666"><path d="m131-13.9h21.2v-3.71h-17v-11.6h15.4v-3.71h-15.4v-10.6h16.6v-3.71h-20.7v33.3z"/><path d="m160-38.6h-4.47l8.85 11.9-9.52 12.8h4.52l7.28-9.85 7.28 9.85h4.52l-9.52-12.8 8.85-11.9h-4.47l-6.66 8.99-6.66-8.99z"/><path d="m201-24.6c0.0476-0.476 0.0476-0.999 0.0476-1.47 0-7.66-4.04-13-11.2-13-6.76 0-11.1 5.14-11.1 12.8 0 7.33 4.23 12.9 12.3 12.9 3.19 0 5.95-0.714 7.99-2l-0.428-3.85c-2.14 1.76-4.57 2.33-7.47 2.33-4.9 0-7.95-3.09-8.28-7.76h18.1zm-18.1-3.43c0.285-4.62 2.85-7.57 6.99-7.57 4.19 0 6.76 2.95 7.04 7.57h-14z"/><path d="m208-26.2c0-5.9 3.57-9.37 8.85-9.37 2.43 0 4.85 0.571 6.57 1.67l0.381-3.81c-1.9-0.952-4.42-1.38-7.09-1.38-7.42 0-12.8 5.09-12.8 12.9 0 7.8 5.28 12.9 13.1 12.9 2.52 0 5.09-0.476 6.99-1.47l-0.381-3.81c-1.81 1.24-4.23 1.76-6.61 1.76-5.52 0-9.04-3.47-9.04-9.37z"/></g></g><g transform="matrix(.159 0 0 -.159 0 56)"><g display="none"><rect width="3.3e3" y="-758" x="-1.3e3" height="1.8e3" display="inline" fill="#414042"/></g><g fill="#ed2424"><circle cy="201" cx="129" r="100"/><circle cy="50.2" cx="129" r="50.2"/><circle cy="98.3" cx="232" r="44.7"/><circle cy="201" cx="268" r="38.6"/><circle cy="297" cx="225" r="35.9"/><circle cy="327" cx="129" r="25.1"/><circle cy="287" cx="43.2" r="20.8"/><circle cy="201" cx="14.3" r="14.3"/><circle cy="125" cx="52.8" r="7.24"/></g><polygon points="71.9 258 111 208 48.3 201 111 194 71.9 144 122 183 129 120 136 183 186 144 147 194 210 201 147 208 186 258 136 219 129 282 122 219" fill="#fff"/></g></g></svg>
