<svg xmlns="http://www.w3.org/2000/svg" viewBox="0 0 293.193 69.98"><defs><style>.a{fill:#fff;}.b{fill:#666;}.c{fill:#ed2424;}</style></defs><title>starexec</title><path class="a" d="M90.022 14.238a29.712 29.712 0 0 0-10.335-1.76c-9.4 0-14.95 3.927-14.95 10.202 0 5.868 4.147 9.52 12.675 11.975 7.046 2.048 9.4 4.503 9.4 8.143a5.606 5.606 0 0 1-.693 2.803c-1.69 2.98-7.51 3.47-8.89 3.52a20.855 20.855 0 0 1-12.14-3.55l-.11 5.5a26.02 26.02 0 0 0 11.82 2.62c9.89 0 15.6-4.1 15.6-11.17 0-6.09-3.9-9.57-13.52-12.57-6.01-1.94-8.6-4.11-8.6-7.35 0-3.41 2.91-5.64 9.15-5.64a22.345 22.345 0 0 1 10.08 2.23zm5.255 13.466h4.01l-.016 16.43c0 3.26.82 5.68 2.4 7.333 2.2 2.3 5.96 2.55 8.19 2.75a21.52 21.52 0 0 0 4.31-.044l.03-4.375c-.45-.01-1.13-.022-1.97-.017-.11 0-.53.01-1.22.02-2.36.05-4-.26-4.75-.84-2.02-1.58-1.75-5.76-1.77-6.7l-.34-14.55h10.15l-.06-4h-9.91l-.09-8h-4.97l.03 8.03h-4.1zm33.265 26.39a13.627 13.627 0 0 0 5.53-.754 10.98 10.98 0 0 0 4.11-3.034l.015 3.843 4.98-.03c-.007-8.89-.025-16.19.052-22.17a8.572 8.572 0 0 0-1.07-4.79c-2.67-4.4-9.54-4.58-11.79-4.72a20.53 20.53 0 0 0-10.16 2.03l.03 4a19.968 19.968 0 0 1 9.87-1.91c2.39.18 5.46.4 7.12 2.74a6.2 6.2 0 0 1 1.05 3.61v2.045h-8.047c-8.97 0-14.04 3.82-14.04 9.797a10.48 10.48 0 0 0 1.054 4.265c1.635 3.173 6.084 5.226 11.27 5.05zm.496-4.215c-4.46 0-7.54-1.66-7.54-5.25 0-3.42 2.782-5.58 8.97-5.58h7.787v7.17c-1.794 2.45-5.252 3.65-9.217 3.65zm41.187-27.01a12.463 12.463 0 0 0-7.563 1.02 12.273 12.273 0 0 0-4.47 3.71l.003-3.77-5.006-.01v30.01h5l.15-20.33a9.69 9.69 0 0 1 1.21-2.91 8.03 8.03 0 0 1 10.63-3.28l.03-4.46z"/><path class="b" d="M172.205 53.97l24.982.012.012-4.024-20.01.012.02-15h18.97v-3.994l-19.01-.006.01-11.994 20-.006.01-4.012-25.025.012zm37.94-29.976l-5.894.035 10.83 14.38-12.07 15.56 6.16-.01 8.46-11.08 8.53 11.07 6.05-.04-11.91-15.52 10.97-14.458-6.26.023L217.618 34zm52.09 16.552a16.79 16.79 0 0 0 .06-1.76c0-9.173-5.25-15.568-14.56-15.568-8.787 0-14.43 6.155-14.43 15.328 0 8.778 5.5 15.448 15.99 15.448a20.846 20.846 0 0 0 10.388-2.395l-.556-4.61c-2.782 2.1-5.94 2.79-9.71 2.79-6.37 0-10.336-3.71-10.765-9.3h23.53zm-23.53-4.107c.37-5.54 3.704-9.07 9.086-9.07 5.45 0 8.79 3.53 9.16 9.06h-18.24zm33.687 2.08c0-7.07 4.64-11.23 11.505-11.23a17.43 17.43 0 0 1 8.54 2l.496-4.57a22.66 22.66 0 0 0-9.217-1.65c-9.646 0-16.64 6.09-16.64 15.45 0 9.34 6.864 15.45 17.03 15.45a21.807 21.807 0 0 0 9.087-1.76l-.495-4.57a16.41 16.41 0 0 1-8.593 2.1c-7.176 0-11.752-4.155-11.752-11.22z"/><circle class="c" cx="25.639" cy="39.949" r="19.875"/><circle class="c" cx="25.639" cy="9.977" r="9.977"/><circle class="c" cx="46.11" cy="19.537" r="8.884"/><circle class="c" cx="53.265" cy="39.949" r="7.672"/><circle class="c" cx="44.719" cy="59.029" r="7.135"/><circle class="c" cx="25.639" cy="64.991" r="4.989"/><circle class="c" cx="8.586" cy="57.041" r="4.134"/><circle class="c" cx="2.842" cy="39.949" r="2.842"/><circle class="c" cx="10.494" cy="24.844" r="1.439"/><path class="a" d="M14.29 51.277l7.77-9.937L9.6 39.95l12.46-1.393-7.77-9.937 9.957 7.75 1.392-12.52 1.39 12.52 9.93-7.75-7.75 9.937 12.52 1.392-12.52 1.39 7.75 9.93-9.94-7.75-1.39 12.52-1.4-12.52-9.96 7.75"/></svg>