<?xml version="1.0" encoding="UTF-8" standalone="no"?>
<svg xmlns="http://www.w3.org/2000/svg" viewBox="0 0 287.5 70" version="1.1"><g transform="matrix(1.25,0,0,-1.25,0,70)"><g transform="matrix(1 0 0 -.917 133 12.8)" fill="#fff"><g fill="#898989"><path d="m8.51-3.76h17.5v3.76h-21.7v-34.2h20.7v3.76h-16.6v11h14.7v3.76h-14.7v11.9z"/><path d="m40.8-14.9 6.59-9.35h4.37l-8.9 11.9 9.2 12.3h-4.3l-7.1-9.71h-0.102l-7 9.71h-4.29l9.2-12.4-8.86-11.9h4.37l6.69 9.35h0.102z"/><path d="m63.9-21.5q-1.35 0-2.53 0.536-1.15 0.536-2.02 1.46-0.869 0.92-1.41 2.17-0.536 1.23-0.664 2.63h12.3q0-1.43-0.383-2.66-0.358-1.25-1.07-2.17-0.715-0.92-1.76-1.43-1.05-0.536-2.43-0.536zm2.17 18.7q1.97 0 3.58-0.307 1.64-0.332 3.24-0.92v3.3q-1.3 0.639-3.22 0.996-1.92 0.383-4.11 0.383-2.61 0-4.9-0.664-2.27-0.664-3.99-2.15-1.71-1.48-2.71-3.86-0.971-2.4-0.971-5.77 0-3.32 0.92-5.75 0.92-2.45 2.45-4.09t3.53-2.45q1.99-0.818 4.16-0.818 2.04 0 3.81 0.69 1.79 0.664 3.09 2.12t2.04 3.76q0.766 2.3 0.766 5.52 0 0.307 0 0.536 0 0.204-0.0256 0.971h-16.7q0 2.32 0.69 3.96 0.715 1.61 1.92 2.63 1.23 0.996 2.86 1.46 1.64 0.46 3.53 0.46z"/><path d="m89.4-24.9q1.76 0 3.37 0.383 1.61 0.358 2.76 1.02v3.3q-1.61-0.613-2.96-0.92t-2.76-0.307q-1.48 0-2.94 0.485t-2.61 1.61q-1.15 1.1-1.86 2.94-0.69 1.81-0.69 4.52 0 1.97 0.511 3.63 0.536 1.66 1.56 2.89 1.05 1.2 2.61 1.89 1.56 0.664 3.6 0.664 1.48 0 2.99-0.307 1.51-0.332 2.94-0.92v3.3q-0.434 0.255-1.15 0.511-0.6 0.114-1.4 0.293-0.9 0.205-1.8 0.307-0.9 0.128-1.9 0.128-2.45 0-4.65-0.741-2.17-0.741-3.81-2.27t-2.58-3.88q-0.945-2.35-0.945-5.57 0-2.4 0.485-4.32 0.511-1.92 1.38-3.37 0.869-1.46 2.02-2.48 1.18-1.02 2.48-1.66 1.33-0.664 2.73-0.945 1.41-0.307 2.73-0.307z"/></g><path d="m-78-25.1q0 1.51 0.613 2.5 0.613 0.971 1.64 1.61 1.05 0.639 2.4 1.05 1.38 0.409 2.86 0.766 1.99 0.485 3.91 1.07 1.94 0.588 3.45 1.64 1.51 1.02 2.43 2.68 0.945 1.66 0.945 4.27 0 2.66-0.996 4.6-0.971 1.92-2.73 3.17-1.74 1.23-4.16 1.81-2.43 0.613-5.31 0.613-1.33 0-2.73-0.179-1.38-0.153-2.66-0.434-1.25-0.281-2.27-0.639t-1.61-0.715v-3.81q0.92 0.46 2.07 0.843t2.38 0.664q1.23 0.255 2.48 0.409 1.25 0.153 2.35 0.153 1.79 0 3.4-0.307 1.64-0.307 2.86-1.02 1.23-0.715 1.94-1.94 0.715-1.25 0.715-3.12 0-1.53-0.639-2.53-0.613-0.996-1.66-1.64-1.05-0.664-2.43-1.07-1.35-0.409-2.86-0.766-1.99-0.46-3.91-1.02-1.89-0.588-3.4-1.61-1.48-1.02-2.4-2.63-0.894-1.61-0.894-4.11 0-2.61 0.92-4.47 0.92-1.89 2.5-3.12t3.7-1.81q2.12-0.588 4.52-0.588 2.73 0 5.08 0.536 2.38 0.511 4.34 1.35v3.86q-2.12-0.894-4.39-1.46-2.25-0.562-4.83-0.588-1.94 0-3.37 0.434-1.43 0.409-2.38 1.2-0.945 0.766-1.41 1.89-0.46 1.1-0.46 2.45z"/><path d="m-40.6 0.0511q-0.511 0.204-1.56 0.383t-2.5 0.204q-1.92 0-3.32-0.485-1.41-0.46-2.35-1.33-0.92-0.894-1.38-2.15-0.46-1.25-0.46-2.78v-14.8h-4.68v-3.4h4.68v-6.64h3.96v6.64h7.26v3.4h-7.26v14.2q0 0.843 0.23 1.56 0.255 0.715 0.766 1.25 0.536 0.511 1.35 0.818 0.818 0.281 1.97 0.281 0.792 0 1.66-0.128 0.894-0.128 1.64-0.332v3.32z"/><path d="m-21.6-2.68h-0.102q-0.485 0.613-1.23 1.23-0.741 0.588-1.71 1.07-0.971 0.46-2.12 0.741t-2.45 0.281q-1.76 0-3.24-0.536-1.46-0.511-2.53-1.51-1.05-1.02-1.64-2.48-0.588-1.46-0.588-3.3 0-1.81 0.639-3.24 0.664-1.43 1.84-2.43 1.18-0.996 2.81-1.53 1.66-0.536 3.65-0.536 1.89 0.0256 3.5 0.332 1.61 0.307 2.86 0.766h0.102v-1.69q0-0.996-0.128-1.76-0.128-0.766-0.434-1.35-0.664-1.23-2.12-2.02-1.46-0.818-3.93-0.818-1.84 0-3.47 0.358-1.61 0.332-3.22 0.945v-3.32q0.613-0.307 1.43-0.562 0.843-0.281 1.76-0.46 0.92-0.204 1.94-0.307 1.02-0.102 2.04-0.102 3.68 0 6 1.3 2.35 1.3 3.37 3.45 0.383 0.818 0.536 1.81 0.179 0.971 0.179 2.15v16.2h-3.32l-0.434-2.68zm-0.204-7.97q-1.1-0.307-2.61-0.588t-3.32-0.307q-2.53 0-3.96 1.07t-1.43 3.3q0 1.12 0.358 1.97 0.358 0.843 0.971 1.41 0.639 0.536 1.48 0.818 0.869 0.255 1.84 0.255 1.28 0 2.38-0.358 1.1-0.383 1.94-0.894 0.869-0.511 1.46-1.02 0.613-0.511 0.894-0.792v-4.85z"/><path d="m2.54-21.1h-0.307q-1.41 0-2.76 0.255t-2.55 0.792q-1.18 0.511-2.15 1.28-0.945 0.766-1.58 1.81v16.9h-3.96v-24.3h3.07l0.766 3.86h0.0766q0.588-0.945 1.43-1.76 0.869-0.818 1.94-1.43 1.07-0.613 2.35-0.945 1.28-0.358 2.68-0.358 0.255 0 0.511 0.0256 0.281 0 0.485 0.0256v3.81z"/></g><g transform="matrix(.159 0 0 -.159 0 56)"><g display="none"><rect width="3.3e3" y="-758" x="-1.3e3" height="1.8e3" display="inline" fill="#414042"/></g><g fill="#ed2424"><circle cy="201" cx="129" r="100"/><circle cy="50.2" cx="129" r="50.2"/><circle cy="98.3" cx="232" r="44.7"/><circle cy="201" cx="268" r="38.6"/><circle cy="297" cx="225" r="35.9"/><circle cy="327" cx="129" r="25.1"/><circle cy="287" cx="43.2" r="20.8"/><circle cy="201" cx="14.3" r="14.3"/><circle cy="125" cx="52.8" r="7.24"/></g><polygon points="186 144 147 194 210 201 147 208 186 258 136 219 129 282 122 219 71.9 258 111 208 48.3 201 111 194 71.9 144 122 183 129 120 136 183" fill="#fff"/></g></g></svg>
