<?xml version="1.0" encoding="utf-8"?>
<!-- Generator: Adobe Illustrator 14.0.0, SVG Export Plug-In . SVG Version: 6.00 Build 43363)  -->
<!DOCTYPE svg PUBLIC "-//W3C//DTD SVG 1.1//EN" "http://www.w3.org/Graphics/SVG/1.1/DTD/svg11.dtd">
<svg version="1.1" xmlns="http://www.w3.org/2000/svg" xmlns:xlink="http://www.w3.org/1999/xlink" x="0px" y="0px"
	 width="204.314px" height="204.316px" viewBox="0 0 204.314 204.316" enable-background="new 0 0 204.314 204.316"
	 xml:space="preserve">
<g id="job" display="none">
	<path display="inline" fill="#ED1C24" d="M204.314,102.157c0,56.421-45.737,102.159-102.158,102.159
		C45.737,204.316,0,158.578,0,102.157C0,45.738,45.737,0,102.156,0C158.577,0,204.314,45.738,204.314,102.157z M93.432,157.921
		c-2.406,2.408-3.61,5.35-3.61,8.825c0,3.411,1.204,6.336,3.61,8.777c2.407,2.439,5.316,3.66,8.727,3.66
		c3.409,0,6.317-1.221,8.725-3.66c2.406-2.441,3.61-5.366,3.61-8.777c0-3.476-1.204-6.417-3.61-8.825
		c-2.407-2.406-5.315-3.609-8.725-3.609C98.748,154.312,95.839,155.515,93.432,157.921z M90.856,25.133l3.879,114.334h14.542
		l3.879-114.334H90.856z"/>
</g>
<g id="job_copy">
	<circle fill="#ED1C24" cx="102.157" cy="102.157" r="102.157"/>
	<path fill="#FFFFFF" d="M102.158,21.064l37.529,64.188l36.823,64.594l-74.352,0.407l-74.353-0.407l36.824-64.594L102.158,21.064z
		 M97.032,128.976c-1.413,1.415-2.121,3.143-2.121,5.184c0,2.004,0.708,3.723,2.121,5.157c1.415,1.432,3.124,2.149,5.127,2.149
		c2.002,0,3.71-0.718,5.125-2.149c1.414-1.435,2.121-3.153,2.121-5.157c0-2.041-0.707-3.769-2.121-5.184
		c-1.414-1.414-3.122-2.12-5.125-2.12C100.155,126.855,98.446,127.562,97.032,128.976z M95.157,51.658l2.641,66.478h8.542
		l2.816-66.478H95.157z"/>
</g>
</svg>
