<?xml version="1.0" encoding="utf-8"?>
<!-- Generator: Adobe Illustrator 14.0.0, SVG Export Plug-In . SVG Version: 6.00 Build 43363)  -->
<!DOCTYPE svg PUBLIC "-//W3C//DTD SVG 1.1//EN" "http://www.w3.org/Graphics/SVG/1.1/DTD/svg11.dtd">
<svg version="1.1" id="logo" xmlns="http://www.w3.org/2000/svg" xmlns:xlink="http://www.w3.org/1999/xlink" x="0px" y="0px"
	 width="306.667px" height="351.731px" viewBox="0 0 306.667 351.731" enable-background="new 0 0 306.667 351.731"
	 xml:space="preserve">
<g>
	<circle id="star_1_" fill="#ED2424" cx="129" cy="200.99" r="100.495"/>
	<circle id="star" fill="#ED2424" cx="129" cy="50.248" r="50.248"/>
	<circle id="star_2_" fill="#ED2424" cx="231.679" cy="98.31" r="44.717"/>
	<circle id="star_4_" fill="#ED2424" cx="268.081" cy="200.99" r="38.587"/>
	<circle id="star_3_" fill="#ED2424" cx="225.464" cy="297.453" r="35.927"/>
	<circle id="star_8_" fill="#ED2424" cx="129" cy="326.607" r="25.124"/>
	<circle id="star_7_" fill="#ED2424" cx="43.222" cy="286.767" r="20.813"/>
	<circle id="star_6_" fill="#ED2424" cx="14.253" cy="200.989" r="14.253"/>
	<circle id="star_5_" fill="#ED2424" cx="52.821" cy="124.811" r="7.24"/>
	<polygon fill="#FFFFFF" points="129,281.725 121.592,218.874 71.912,258.078 111.115,208.397 48.265,200.99 111.115,193.582 
		71.912,143.901 121.592,183.105 129,120.254 136.408,183.104 186.088,143.901 146.885,193.582 209.735,200.989 146.885,208.397 
		186.089,258.078 136.408,218.874 	"/>
</g>
</svg>
